<mxfile host="app.diagrams.net" agent="Mozilla/5.0 (Windows NT 10.0; Win64; x64) AppleWebKit/537.36 (KHTML, like Gecko) Chrome/134.0.0.0 Safari/537.36 Edg/134.0.0.0" version="26.1.1">
  <diagram name="Page-1" id="stBWmDPy4Tt8ZAz3WzSM">
    <mxGraphModel dx="1141" dy="1794" grid="1" gridSize="10" guides="1" tooltips="1" connect="1" arrows="1" fold="1" page="1" pageScale="1" pageWidth="850" pageHeight="1100" math="0" shadow="0">
      <root>
        <mxCell id="0" />
        <mxCell id="1" parent="0" />
        <mxCell id="3y04S-a0-anMxjT8K6NH-4" value="&lt;font&gt;&lt;font style=&quot;&quot;&gt;&lt;b style=&quot;&quot;&gt;Крез ЕООД &lt;/b&gt;&lt;/font&gt;&lt;br&gt;&lt;font style=&quot;font-size: 10px;&quot;&gt;ЕИК&amp;nbsp;112562788&lt;/font&gt;&lt;/font&gt;" style="swimlane;fontStyle=0;childLayout=stackLayout;horizontal=1;startSize=30;horizontalStack=0;resizeParent=1;resizeParentMax=0;resizeLast=0;collapsible=1;marginBottom=0;whiteSpace=wrap;html=1;fillColor=#ffcc99;strokeColor=#36393d;" vertex="1" parent="1">
          <mxGeometry x="340" width="220" height="130" as="geometry" />
        </mxCell>
        <mxCell id="3y04S-a0-anMxjT8K6NH-5" value="&lt;font style=&quot;font-size: 10px;&quot;&gt;&lt;b&gt;Адрес&lt;/b&gt;:&amp;nbsp;&lt;span style=&quot;background-color: transparent;&quot;&gt;гр. Пазарджик,&amp;nbsp;&lt;/span&gt;&lt;span style=&quot;background-color: transparent; color: light-dark(rgb(0, 0, 0), rgb(255, 255, 255));&quot;&gt;ул.&quot;Стоян Ангелов&quot; - Строймаркет КРЕЗ&lt;/span&gt;&lt;/font&gt;" style="text;strokeColor=none;fillColor=none;align=left;verticalAlign=middle;spacingLeft=4;spacingRight=4;overflow=hidden;points=[[0,0.5],[1,0.5]];portConstraint=eastwest;rotatable=0;whiteSpace=wrap;html=1;" vertex="1" parent="3y04S-a0-anMxjT8K6NH-4">
          <mxGeometry y="30" width="220" height="30" as="geometry" />
        </mxCell>
        <mxCell id="3y04S-a0-anMxjT8K6NH-6" value="&lt;font style=&quot;font-size: 10px;&quot;&gt;&lt;b&gt;Капитал&lt;/b&gt;:&amp;nbsp;726 500 (155 000 + 571 500 капитал на Крез Алианс)&lt;/font&gt;" style="text;strokeColor=none;fillColor=none;align=left;verticalAlign=middle;spacingLeft=4;spacingRight=4;overflow=hidden;points=[[0,0.5],[1,0.5]];portConstraint=eastwest;rotatable=0;whiteSpace=wrap;html=1;" vertex="1" parent="3y04S-a0-anMxjT8K6NH-4">
          <mxGeometry y="60" width="220" height="30" as="geometry" />
        </mxCell>
        <mxCell id="3y04S-a0-anMxjT8K6NH-7" value="&lt;font style=&quot;font-size: 10px;&quot;&gt;&lt;b&gt;Представляващи&lt;/b&gt;:&amp;nbsp;Костадин Тодоров Тошев&lt;/font&gt;" style="text;strokeColor=none;fillColor=none;align=left;verticalAlign=middle;spacingLeft=4;spacingRight=4;overflow=hidden;points=[[0,0.5],[1,0.5]];portConstraint=eastwest;rotatable=0;whiteSpace=wrap;html=1;" vertex="1" parent="3y04S-a0-anMxjT8K6NH-4">
          <mxGeometry y="90" width="220" height="20" as="geometry" />
        </mxCell>
        <mxCell id="3y04S-a0-anMxjT8K6NH-8" value="&lt;font style=&quot;font-size: 10px;&quot;&gt;&lt;b&gt;Основна дейност:&lt;/b&gt;&lt;/font&gt;" style="text;strokeColor=none;fillColor=none;align=left;verticalAlign=middle;spacingLeft=4;spacingRight=4;overflow=hidden;points=[[0,0.5],[1,0.5]];portConstraint=eastwest;rotatable=0;whiteSpace=wrap;html=1;" vertex="1" parent="3y04S-a0-anMxjT8K6NH-4">
          <mxGeometry y="110" width="220" height="20" as="geometry" />
        </mxCell>
        <mxCell id="3y04S-a0-anMxjT8K6NH-24" value="&lt;font&gt;&lt;b&gt;Крез Армъри ЕООД&lt;/b&gt;&lt;br&gt;&lt;font style=&quot;font-size: 10px;&quot;&gt;ЕИК&amp;nbsp;204210795&lt;/font&gt;&lt;/font&gt;" style="swimlane;fontStyle=0;childLayout=stackLayout;horizontal=1;startSize=30;horizontalStack=0;resizeParent=1;resizeParentMax=0;resizeLast=0;collapsible=1;marginBottom=0;whiteSpace=wrap;html=1;fillColor=#fff2cc;strokeColor=#d6b656;" vertex="1" parent="1">
          <mxGeometry x="10" width="230" height="130" as="geometry" />
        </mxCell>
        <mxCell id="3y04S-a0-anMxjT8K6NH-25" value="&lt;font style=&quot;font-size: 10px;&quot;&gt;&lt;b&gt;Адрес&lt;/b&gt;:&amp;nbsp;&lt;span style=&quot;background-color: transparent;&quot;&gt;гр. Пазарджик,&amp;nbsp;&lt;/span&gt;&lt;span style=&quot;background-color: transparent; color: light-dark(rgb(0, 0, 0), rgb(255, 255, 255));&quot;&gt;ул.&quot;Стоян Ангелов&quot; - Строймаркет КРЕЗ&lt;/span&gt;&lt;/font&gt;" style="text;strokeColor=none;fillColor=none;align=left;verticalAlign=middle;spacingLeft=4;spacingRight=4;overflow=hidden;points=[[0,0.5],[1,0.5]];portConstraint=eastwest;rotatable=0;whiteSpace=wrap;html=1;" vertex="1" parent="3y04S-a0-anMxjT8K6NH-24">
          <mxGeometry y="30" width="230" height="30" as="geometry" />
        </mxCell>
        <mxCell id="3y04S-a0-anMxjT8K6NH-26" value="&lt;font style=&quot;font-size: 10px;&quot;&gt;&lt;b&gt;Капитал&lt;/b&gt;: 10 000&lt;/font&gt;" style="text;strokeColor=none;fillColor=none;align=left;verticalAlign=middle;spacingLeft=4;spacingRight=4;overflow=hidden;points=[[0,0.5],[1,0.5]];portConstraint=eastwest;rotatable=0;whiteSpace=wrap;html=1;" vertex="1" parent="3y04S-a0-anMxjT8K6NH-24">
          <mxGeometry y="60" width="230" height="20" as="geometry" />
        </mxCell>
        <mxCell id="3y04S-a0-anMxjT8K6NH-27" value="&lt;font style=&quot;font-size: 10px;&quot;&gt;&lt;b&gt;Представляващи&lt;/b&gt;:&amp;nbsp;Костадин Тодоров Тошев&lt;/font&gt;" style="text;strokeColor=none;fillColor=none;align=left;verticalAlign=middle;spacingLeft=4;spacingRight=4;overflow=hidden;points=[[0,0.5],[1,0.5]];portConstraint=eastwest;rotatable=0;whiteSpace=wrap;html=1;" vertex="1" parent="3y04S-a0-anMxjT8K6NH-24">
          <mxGeometry y="80" width="230" height="20" as="geometry" />
        </mxCell>
        <mxCell id="3y04S-a0-anMxjT8K6NH-28" value="&lt;font style=&quot;font-size: 10px;&quot;&gt;&lt;b&gt;Основна дейност:&lt;/b&gt;&amp;nbsp;&lt;/font&gt;&lt;span style=&quot;font-size: 10px;&quot;&gt;Търговия с ловно, спортно и бойно оръжие и боеприпаси за него&lt;/span&gt;" style="text;strokeColor=none;fillColor=none;align=left;verticalAlign=middle;spacingLeft=4;spacingRight=4;overflow=hidden;points=[[0,0.5],[1,0.5]];portConstraint=eastwest;rotatable=0;whiteSpace=wrap;html=1;" vertex="1" parent="3y04S-a0-anMxjT8K6NH-24">
          <mxGeometry y="100" width="230" height="30" as="geometry" />
        </mxCell>
        <mxCell id="3y04S-a0-anMxjT8K6NH-30" value="" style="endArrow=classic;html=1;rounded=0;exitX=0;exitY=0.333;exitDx=0;exitDy=0;exitPerimeter=0;entryX=1;entryY=0.5;entryDx=0;entryDy=0;" edge="1" parent="1" source="3y04S-a0-anMxjT8K6NH-6" target="3y04S-a0-anMxjT8K6NH-26">
          <mxGeometry width="50" height="50" relative="1" as="geometry">
            <mxPoint x="140" y="275" as="sourcePoint" />
            <mxPoint x="140" y="315" as="targetPoint" />
          </mxGeometry>
        </mxCell>
        <mxCell id="3y04S-a0-anMxjT8K6NH-31" value="&lt;font&gt;&lt;b&gt;Крез Фишинг ЕООД&lt;/b&gt;&lt;br&gt;&lt;font style=&quot;font-size: 10px;&quot;&gt;ЕИК&amp;nbsp;204187859&lt;/font&gt;&lt;/font&gt;" style="swimlane;fontStyle=0;childLayout=stackLayout;horizontal=1;startSize=30;horizontalStack=0;resizeParent=1;resizeParentMax=0;resizeLast=0;collapsible=1;marginBottom=0;whiteSpace=wrap;html=1;fillColor=#fff2cc;strokeColor=#d6b656;" vertex="1" parent="1">
          <mxGeometry x="10" y="-190" width="230" height="120" as="geometry" />
        </mxCell>
        <mxCell id="3y04S-a0-anMxjT8K6NH-32" value="&lt;font style=&quot;font-size: 10px;&quot;&gt;&lt;b&gt;Адрес&lt;/b&gt;:&amp;nbsp;&lt;span style=&quot;background-color: transparent;&quot;&gt;гр. Пазарджик,&amp;nbsp;&lt;/span&gt;&lt;span style=&quot;background-color: transparent; color: light-dark(rgb(0, 0, 0), rgb(255, 255, 255));&quot;&gt;ул.&quot;Стоян Ангелов&quot; - Строймаркет КРЕЗ&lt;/span&gt;&lt;/font&gt;" style="text;strokeColor=none;fillColor=none;align=left;verticalAlign=middle;spacingLeft=4;spacingRight=4;overflow=hidden;points=[[0,0.5],[1,0.5]];portConstraint=eastwest;rotatable=0;whiteSpace=wrap;html=1;" vertex="1" parent="3y04S-a0-anMxjT8K6NH-31">
          <mxGeometry y="30" width="230" height="30" as="geometry" />
        </mxCell>
        <mxCell id="3y04S-a0-anMxjT8K6NH-33" value="&lt;font style=&quot;font-size: 10px;&quot;&gt;&lt;b&gt;Капитал&lt;/b&gt;: 1000&lt;/font&gt;" style="text;strokeColor=none;fillColor=none;align=left;verticalAlign=middle;spacingLeft=4;spacingRight=4;overflow=hidden;points=[[0,0.5],[1,0.5]];portConstraint=eastwest;rotatable=0;whiteSpace=wrap;html=1;" vertex="1" parent="3y04S-a0-anMxjT8K6NH-31">
          <mxGeometry y="60" width="230" height="20" as="geometry" />
        </mxCell>
        <mxCell id="3y04S-a0-anMxjT8K6NH-34" value="&lt;font style=&quot;font-size: 10px;&quot;&gt;&lt;b&gt;Представляващи&lt;/b&gt;:&amp;nbsp;Костадин Тодоров Тошев&lt;/font&gt;" style="text;strokeColor=none;fillColor=none;align=left;verticalAlign=middle;spacingLeft=4;spacingRight=4;overflow=hidden;points=[[0,0.5],[1,0.5]];portConstraint=eastwest;rotatable=0;whiteSpace=wrap;html=1;" vertex="1" parent="3y04S-a0-anMxjT8K6NH-31">
          <mxGeometry y="80" width="230" height="20" as="geometry" />
        </mxCell>
        <mxCell id="3y04S-a0-anMxjT8K6NH-35" value="&lt;font style=&quot;font-size: 10px;&quot;&gt;&lt;b&gt;Основна дейност:&lt;/b&gt;&amp;nbsp;търговия&lt;/font&gt;" style="text;strokeColor=none;fillColor=none;align=left;verticalAlign=middle;spacingLeft=4;spacingRight=4;overflow=hidden;points=[[0,0.5],[1,0.5]];portConstraint=eastwest;rotatable=0;whiteSpace=wrap;html=1;" vertex="1" parent="3y04S-a0-anMxjT8K6NH-31">
          <mxGeometry y="100" width="230" height="20" as="geometry" />
        </mxCell>
        <mxCell id="3y04S-a0-anMxjT8K6NH-36" value="" style="endArrow=classic;html=1;rounded=0;exitX=0.5;exitY=0;exitDx=0;exitDy=0;entryX=1;entryY=0.5;entryDx=0;entryDy=0;" edge="1" parent="1" source="3y04S-a0-anMxjT8K6NH-4" target="3y04S-a0-anMxjT8K6NH-33">
          <mxGeometry width="50" height="50" relative="1" as="geometry">
            <mxPoint x="450" y="-50" as="sourcePoint" />
            <mxPoint x="350" y="-50" as="targetPoint" />
          </mxGeometry>
        </mxCell>
        <mxCell id="3y04S-a0-anMxjT8K6NH-37" value="&lt;font&gt;&lt;b&gt;Крез Алианс ЕООД&lt;/b&gt;&lt;br&gt;&lt;font style=&quot;font-size: 10px;&quot;&gt;ЕИК&amp;nbsp;200186650&lt;/font&gt;&lt;/font&gt;" style="swimlane;fontStyle=0;childLayout=stackLayout;horizontal=1;startSize=30;horizontalStack=0;resizeParent=1;resizeParentMax=0;resizeLast=0;collapsible=1;marginBottom=0;whiteSpace=wrap;html=1;fillColor=#fff2cc;strokeColor=#d6b656;" vertex="1" parent="1">
          <mxGeometry x="340" y="-190" width="230" height="120" as="geometry" />
        </mxCell>
        <mxCell id="3y04S-a0-anMxjT8K6NH-38" value="&lt;font style=&quot;font-size: 10px;&quot;&gt;&lt;b&gt;Адрес&lt;/b&gt;:&amp;nbsp;&lt;span style=&quot;background-color: transparent;&quot;&gt;гр. Пазарджик,&amp;nbsp;&lt;/span&gt;&lt;span style=&quot;background-color: transparent; color: light-dark(rgb(0, 0, 0), rgb(255, 255, 255));&quot;&gt;ул.&quot;Стоян Ангелов&quot; - Строймаркет КРЕЗ&lt;/span&gt;&lt;/font&gt;" style="text;strokeColor=none;fillColor=none;align=left;verticalAlign=middle;spacingLeft=4;spacingRight=4;overflow=hidden;points=[[0,0.5],[1,0.5]];portConstraint=eastwest;rotatable=0;whiteSpace=wrap;html=1;" vertex="1" parent="3y04S-a0-anMxjT8K6NH-37">
          <mxGeometry y="30" width="230" height="30" as="geometry" />
        </mxCell>
        <mxCell id="3y04S-a0-anMxjT8K6NH-39" value="&lt;font style=&quot;font-size: 10px;&quot;&gt;&lt;b&gt;Капитал&lt;/b&gt;: 350 000&lt;/font&gt;" style="text;strokeColor=none;fillColor=none;align=left;verticalAlign=middle;spacingLeft=4;spacingRight=4;overflow=hidden;points=[[0,0.5],[1,0.5]];portConstraint=eastwest;rotatable=0;whiteSpace=wrap;html=1;" vertex="1" parent="3y04S-a0-anMxjT8K6NH-37">
          <mxGeometry y="60" width="230" height="20" as="geometry" />
        </mxCell>
        <mxCell id="3y04S-a0-anMxjT8K6NH-40" value="&lt;font style=&quot;font-size: 10px;&quot;&gt;&lt;b&gt;Представляващи&lt;/b&gt;:&amp;nbsp;Костадин Тодоров Тошев&lt;/font&gt;" style="text;strokeColor=none;fillColor=none;align=left;verticalAlign=middle;spacingLeft=4;spacingRight=4;overflow=hidden;points=[[0,0.5],[1,0.5]];portConstraint=eastwest;rotatable=0;whiteSpace=wrap;html=1;" vertex="1" parent="3y04S-a0-anMxjT8K6NH-37">
          <mxGeometry y="80" width="230" height="20" as="geometry" />
        </mxCell>
        <mxCell id="3y04S-a0-anMxjT8K6NH-41" value="&lt;font style=&quot;font-size: 10px;&quot;&gt;&lt;b&gt;Основна дейност:&lt;/b&gt;&amp;nbsp;&lt;/font&gt;" style="text;strokeColor=none;fillColor=none;align=left;verticalAlign=middle;spacingLeft=4;spacingRight=4;overflow=hidden;points=[[0,0.5],[1,0.5]];portConstraint=eastwest;rotatable=0;whiteSpace=wrap;html=1;" vertex="1" parent="3y04S-a0-anMxjT8K6NH-37">
          <mxGeometry y="100" width="230" height="20" as="geometry" />
        </mxCell>
        <mxCell id="3y04S-a0-anMxjT8K6NH-42" value="" style="endArrow=classic;html=1;rounded=0;exitX=0.5;exitY=0;exitDx=0;exitDy=0;entryX=0.515;entryY=1.008;entryDx=0;entryDy=0;entryPerimeter=0;" edge="1" parent="1" target="3y04S-a0-anMxjT8K6NH-41">
          <mxGeometry width="50" height="50" relative="1" as="geometry">
            <mxPoint x="460" as="sourcePoint" />
            <mxPoint x="250" y="-120" as="targetPoint" />
          </mxGeometry>
        </mxCell>
        <mxCell id="3y04S-a0-anMxjT8K6NH-43" value="&lt;font&gt;&lt;b&gt;Крезко ЕООД&lt;/b&gt;&lt;br&gt;&lt;font style=&quot;font-size: 10px;&quot;&gt;ЕИК&amp;nbsp;206337556&lt;/font&gt;&lt;/font&gt;" style="swimlane;fontStyle=0;childLayout=stackLayout;horizontal=1;startSize=30;horizontalStack=0;resizeParent=1;resizeParentMax=0;resizeLast=0;collapsible=1;marginBottom=0;whiteSpace=wrap;html=1;fillColor=#fff2cc;strokeColor=#d6b656;" vertex="1" parent="1">
          <mxGeometry x="610" y="-190" width="230" height="120" as="geometry" />
        </mxCell>
        <mxCell id="3y04S-a0-anMxjT8K6NH-44" value="&lt;font style=&quot;font-size: 10px;&quot;&gt;&lt;b&gt;Адрес&lt;/b&gt;:&amp;nbsp;&lt;/font&gt;&lt;span style=&quot;background-color: transparent; font-size: 10px;&quot;&gt;гр. София,&amp;nbsp;&lt;/span&gt;&lt;span style=&quot;font-size: 10px; background-color: transparent; color: light-dark(rgb(0, 0, 0), rgb(255, 255, 255));&quot;&gt;ж.к. Студентски град, ул.&quot;Акад.Стефан Младенов&quot; № 76&lt;/span&gt;" style="text;strokeColor=none;fillColor=none;align=left;verticalAlign=middle;spacingLeft=4;spacingRight=4;overflow=hidden;points=[[0,0.5],[1,0.5]];portConstraint=eastwest;rotatable=0;whiteSpace=wrap;html=1;" vertex="1" parent="3y04S-a0-anMxjT8K6NH-43">
          <mxGeometry y="30" width="230" height="30" as="geometry" />
        </mxCell>
        <mxCell id="3y04S-a0-anMxjT8K6NH-45" value="&lt;font style=&quot;font-size: 10px;&quot;&gt;&lt;b&gt;Капитал&lt;/b&gt;: 1 000&lt;/font&gt;" style="text;strokeColor=none;fillColor=none;align=left;verticalAlign=middle;spacingLeft=4;spacingRight=4;overflow=hidden;points=[[0,0.5],[1,0.5]];portConstraint=eastwest;rotatable=0;whiteSpace=wrap;html=1;" vertex="1" parent="3y04S-a0-anMxjT8K6NH-43">
          <mxGeometry y="60" width="230" height="20" as="geometry" />
        </mxCell>
        <mxCell id="3y04S-a0-anMxjT8K6NH-46" value="&lt;font style=&quot;font-size: 10px;&quot;&gt;&lt;b&gt;Представляващи&lt;/b&gt;:&amp;nbsp;Костадин Тодоров Тошев&lt;/font&gt;" style="text;strokeColor=none;fillColor=none;align=left;verticalAlign=middle;spacingLeft=4;spacingRight=4;overflow=hidden;points=[[0,0.5],[1,0.5]];portConstraint=eastwest;rotatable=0;whiteSpace=wrap;html=1;" vertex="1" parent="3y04S-a0-anMxjT8K6NH-43">
          <mxGeometry y="80" width="230" height="20" as="geometry" />
        </mxCell>
        <mxCell id="3y04S-a0-anMxjT8K6NH-47" value="&lt;font style=&quot;font-size: 10px;&quot;&gt;&lt;b&gt;Основна дейност:&lt;/b&gt;&amp;nbsp;Търговия&amp;nbsp;&lt;/font&gt;" style="text;strokeColor=none;fillColor=none;align=left;verticalAlign=middle;spacingLeft=4;spacingRight=4;overflow=hidden;points=[[0,0.5],[1,0.5]];portConstraint=eastwest;rotatable=0;whiteSpace=wrap;html=1;" vertex="1" parent="3y04S-a0-anMxjT8K6NH-43">
          <mxGeometry y="100" width="230" height="20" as="geometry" />
        </mxCell>
        <mxCell id="3y04S-a0-anMxjT8K6NH-48" value="" style="endArrow=classic;html=1;rounded=0;exitX=0.5;exitY=0;exitDx=0;exitDy=0;entryX=0.537;entryY=1.038;entryDx=0;entryDy=0;entryPerimeter=0;" edge="1" parent="1" target="3y04S-a0-anMxjT8K6NH-47">
          <mxGeometry width="50" height="50" relative="1" as="geometry">
            <mxPoint x="462" as="sourcePoint" />
            <mxPoint x="460" y="-70" as="targetPoint" />
          </mxGeometry>
        </mxCell>
        <mxCell id="3y04S-a0-anMxjT8K6NH-49" value="&lt;font&gt;&lt;b&gt;Артелло ЕООД&lt;/b&gt;&lt;br&gt;&lt;font style=&quot;font-size: 10px;&quot;&gt;ЕИК&amp;nbsp;207612799&lt;/font&gt;&lt;/font&gt;" style="swimlane;fontStyle=0;childLayout=stackLayout;horizontal=1;startSize=30;horizontalStack=0;resizeParent=1;resizeParentMax=0;resizeLast=0;collapsible=1;marginBottom=0;whiteSpace=wrap;html=1;fillColor=#f5f5f5;strokeColor=#666666;fontColor=#333333;" vertex="1" parent="1">
          <mxGeometry x="10" y="160" width="230" height="120" as="geometry" />
        </mxCell>
        <mxCell id="3y04S-a0-anMxjT8K6NH-50" value="&lt;font style=&quot;font-size: 10px;&quot;&gt;&lt;b&gt;Адрес&lt;/b&gt;:&amp;nbsp;&lt;/font&gt;&lt;span style=&quot;font-size: 10px; background-color: transparent;&quot;&gt;гр. Пазарджик,&amp;nbsp;&lt;/span&gt;&lt;span style=&quot;color: light-dark(rgb(0, 0, 0), rgb(255, 255, 255)); font-size: 10px; background-color: transparent;&quot;&gt;ул.&quot;Стоян Ангелов&quot; - Строймаркет КРЕЗ&lt;/span&gt;" style="text;strokeColor=none;fillColor=none;align=left;verticalAlign=middle;spacingLeft=4;spacingRight=4;overflow=hidden;points=[[0,0.5],[1,0.5]];portConstraint=eastwest;rotatable=0;whiteSpace=wrap;html=1;" vertex="1" parent="3y04S-a0-anMxjT8K6NH-49">
          <mxGeometry y="30" width="230" height="30" as="geometry" />
        </mxCell>
        <mxCell id="3y04S-a0-anMxjT8K6NH-51" value="&lt;font style=&quot;font-size: 10px;&quot;&gt;&lt;b&gt;Капитал&lt;/b&gt;: 5 000&lt;/font&gt;" style="text;strokeColor=none;fillColor=none;align=left;verticalAlign=middle;spacingLeft=4;spacingRight=4;overflow=hidden;points=[[0,0.5],[1,0.5]];portConstraint=eastwest;rotatable=0;whiteSpace=wrap;html=1;" vertex="1" parent="3y04S-a0-anMxjT8K6NH-49">
          <mxGeometry y="60" width="230" height="20" as="geometry" />
        </mxCell>
        <mxCell id="3y04S-a0-anMxjT8K6NH-52" value="&lt;font style=&quot;font-size: 10px;&quot;&gt;&lt;b&gt;Представляващи&lt;/b&gt;:&amp;nbsp;Костадин Тодоров Тошев&lt;/font&gt;" style="text;strokeColor=none;fillColor=none;align=left;verticalAlign=middle;spacingLeft=4;spacingRight=4;overflow=hidden;points=[[0,0.5],[1,0.5]];portConstraint=eastwest;rotatable=0;whiteSpace=wrap;html=1;" vertex="1" parent="3y04S-a0-anMxjT8K6NH-49">
          <mxGeometry y="80" width="230" height="20" as="geometry" />
        </mxCell>
        <mxCell id="3y04S-a0-anMxjT8K6NH-53" value="&lt;font style=&quot;font-size: 10px;&quot;&gt;&lt;b&gt;Основна дейност:&lt;/b&gt;&amp;nbsp;няма дейност&amp;nbsp;&lt;/font&gt;" style="text;strokeColor=none;fillColor=none;align=left;verticalAlign=middle;spacingLeft=4;spacingRight=4;overflow=hidden;points=[[0,0.5],[1,0.5]];portConstraint=eastwest;rotatable=0;whiteSpace=wrap;html=1;" vertex="1" parent="3y04S-a0-anMxjT8K6NH-49">
          <mxGeometry y="100" width="230" height="20" as="geometry" />
        </mxCell>
        <mxCell id="3y04S-a0-anMxjT8K6NH-54" value="&lt;font&gt;&lt;b&gt;Биопазар ЕООД&lt;/b&gt;&lt;br&gt;&lt;font style=&quot;font-size: 10px;&quot;&gt;ЕИК&amp;nbsp;204741739&lt;/font&gt;&lt;/font&gt;" style="swimlane;fontStyle=0;childLayout=stackLayout;horizontal=1;startSize=30;horizontalStack=0;resizeParent=1;resizeParentMax=0;resizeLast=0;collapsible=1;marginBottom=0;whiteSpace=wrap;html=1;fillColor=#f5f5f5;strokeColor=#666666;fontColor=#333333;" vertex="1" parent="1">
          <mxGeometry x="340" y="160" width="230" height="120" as="geometry" />
        </mxCell>
        <mxCell id="3y04S-a0-anMxjT8K6NH-55" value="&lt;font style=&quot;font-size: 10px;&quot;&gt;&lt;b&gt;Адрес&lt;/b&gt;:&amp;nbsp;&lt;/font&gt;&lt;span style=&quot;background-color: transparent; font-size: 10px;&quot;&gt;гр. Белово,&lt;/span&gt;&lt;span style=&quot;font-size: 10px; background-color: transparent; color: light-dark(rgb(0, 0, 0), rgb(255, 255, 255));&quot;&gt;&amp;nbsp;ул. Освобождение 1&lt;/span&gt;" style="text;strokeColor=none;fillColor=none;align=left;verticalAlign=middle;spacingLeft=4;spacingRight=4;overflow=hidden;points=[[0,0.5],[1,0.5]];portConstraint=eastwest;rotatable=0;whiteSpace=wrap;html=1;" vertex="1" parent="3y04S-a0-anMxjT8K6NH-54">
          <mxGeometry y="30" width="230" height="20" as="geometry" />
        </mxCell>
        <mxCell id="3y04S-a0-anMxjT8K6NH-56" value="&lt;font style=&quot;font-size: 10px;&quot;&gt;&lt;b&gt;Капитал&lt;/b&gt;: 200 002&lt;/font&gt;" style="text;strokeColor=none;fillColor=none;align=left;verticalAlign=middle;spacingLeft=4;spacingRight=4;overflow=hidden;points=[[0,0.5],[1,0.5]];portConstraint=eastwest;rotatable=0;whiteSpace=wrap;html=1;" vertex="1" parent="3y04S-a0-anMxjT8K6NH-54">
          <mxGeometry y="50" width="230" height="20" as="geometry" />
        </mxCell>
        <mxCell id="3y04S-a0-anMxjT8K6NH-57" value="&lt;font style=&quot;font-size: 10px;&quot;&gt;&lt;b&gt;Представляващи&lt;/b&gt;:&amp;nbsp;Костадин Тодоров Тошев&lt;/font&gt;" style="text;strokeColor=none;fillColor=none;align=left;verticalAlign=middle;spacingLeft=4;spacingRight=4;overflow=hidden;points=[[0,0.5],[1,0.5]];portConstraint=eastwest;rotatable=0;whiteSpace=wrap;html=1;" vertex="1" parent="3y04S-a0-anMxjT8K6NH-54">
          <mxGeometry y="70" width="230" height="20" as="geometry" />
        </mxCell>
        <mxCell id="3y04S-a0-anMxjT8K6NH-58" value="&lt;font style=&quot;font-size: 10px;&quot;&gt;&lt;b&gt;Основна дейност:&lt;/b&gt;&amp;nbsp;&lt;/font&gt;&lt;span style=&quot;font-size: 10px;&quot;&gt;закупуване, обработка и култивация на земеделски земи&lt;/span&gt;" style="text;strokeColor=none;fillColor=none;align=left;verticalAlign=middle;spacingLeft=4;spacingRight=4;overflow=hidden;points=[[0,0.5],[1,0.5]];portConstraint=eastwest;rotatable=0;whiteSpace=wrap;html=1;" vertex="1" parent="3y04S-a0-anMxjT8K6NH-54">
          <mxGeometry y="90" width="230" height="30" as="geometry" />
        </mxCell>
        <mxCell id="3y04S-a0-anMxjT8K6NH-59" value="&lt;font&gt;&lt;b&gt;Пелта България ЕООД&lt;/b&gt;&lt;br&gt;&lt;font style=&quot;font-size: 10px;&quot;&gt;ЕИК&amp;nbsp;207514216&lt;/font&gt;&lt;/font&gt;" style="swimlane;fontStyle=0;childLayout=stackLayout;horizontal=1;startSize=30;horizontalStack=0;resizeParent=1;resizeParentMax=0;resizeLast=0;collapsible=1;marginBottom=0;whiteSpace=wrap;html=1;fillColor=#f5f5f5;strokeColor=#666666;fontColor=#333333;" vertex="1" parent="1">
          <mxGeometry x="610" y="160" width="230" height="120" as="geometry" />
        </mxCell>
        <mxCell id="3y04S-a0-anMxjT8K6NH-60" value="&lt;font style=&quot;font-size: 10px;&quot;&gt;&lt;b&gt;Адрес&lt;/b&gt;:&amp;nbsp;&lt;/font&gt;&lt;span style=&quot;font-size: 10px; background-color: transparent;&quot;&gt;гр. Пазарджик,&amp;nbsp;&lt;/span&gt;&lt;span style=&quot;color: light-dark(rgb(0, 0, 0), rgb(255, 255, 255)); font-size: 10px; background-color: transparent;&quot;&gt;ул.&quot;Стоян Ангелов&quot; - Строймаркет КРЕЗ&lt;/span&gt;" style="text;strokeColor=none;fillColor=none;align=left;verticalAlign=middle;spacingLeft=4;spacingRight=4;overflow=hidden;points=[[0,0.5],[1,0.5]];portConstraint=eastwest;rotatable=0;whiteSpace=wrap;html=1;" vertex="1" parent="3y04S-a0-anMxjT8K6NH-59">
          <mxGeometry y="30" width="230" height="30" as="geometry" />
        </mxCell>
        <mxCell id="3y04S-a0-anMxjT8K6NH-61" value="&lt;font style=&quot;font-size: 10px;&quot;&gt;&lt;b&gt;Капитал&lt;/b&gt;: 10 000&lt;/font&gt;" style="text;strokeColor=none;fillColor=none;align=left;verticalAlign=middle;spacingLeft=4;spacingRight=4;overflow=hidden;points=[[0,0.5],[1,0.5]];portConstraint=eastwest;rotatable=0;whiteSpace=wrap;html=1;" vertex="1" parent="3y04S-a0-anMxjT8K6NH-59">
          <mxGeometry y="60" width="230" height="20" as="geometry" />
        </mxCell>
        <mxCell id="3y04S-a0-anMxjT8K6NH-62" value="&lt;font style=&quot;font-size: 10px;&quot;&gt;&lt;b&gt;Представляващи&lt;/b&gt;:&amp;nbsp;Костадин Тодоров Тошев&lt;/font&gt;" style="text;strokeColor=none;fillColor=none;align=left;verticalAlign=middle;spacingLeft=4;spacingRight=4;overflow=hidden;points=[[0,0.5],[1,0.5]];portConstraint=eastwest;rotatable=0;whiteSpace=wrap;html=1;" vertex="1" parent="3y04S-a0-anMxjT8K6NH-59">
          <mxGeometry y="80" width="230" height="20" as="geometry" />
        </mxCell>
        <mxCell id="3y04S-a0-anMxjT8K6NH-63" value="&lt;font style=&quot;font-size: 10px;&quot;&gt;&lt;b&gt;Основна дейност:&lt;/b&gt;&amp;nbsp;&lt;/font&gt;&lt;span style=&quot;font-size: 10px;&quot;&gt;няма дейност&lt;/span&gt;" style="text;strokeColor=none;fillColor=none;align=left;verticalAlign=middle;spacingLeft=4;spacingRight=4;overflow=hidden;points=[[0,0.5],[1,0.5]];portConstraint=eastwest;rotatable=0;whiteSpace=wrap;html=1;" vertex="1" parent="3y04S-a0-anMxjT8K6NH-59">
          <mxGeometry y="100" width="230" height="20" as="geometry" />
        </mxCell>
        <mxCell id="3y04S-a0-anMxjT8K6NH-64" value="" style="endArrow=classic;html=1;rounded=0;exitX=0;exitY=0.333;exitDx=0;exitDy=0;exitPerimeter=0;entryX=0.5;entryY=0;entryDx=0;entryDy=0;" edge="1" parent="1" target="3y04S-a0-anMxjT8K6NH-49">
          <mxGeometry width="50" height="50" relative="1" as="geometry">
            <mxPoint x="450" y="130" as="sourcePoint" />
            <mxPoint x="350" y="130" as="targetPoint" />
          </mxGeometry>
        </mxCell>
        <mxCell id="3y04S-a0-anMxjT8K6NH-65" value="" style="endArrow=classic;html=1;rounded=0;exitX=0;exitY=0.333;exitDx=0;exitDy=0;exitPerimeter=0;entryX=0.473;entryY=-0.011;entryDx=0;entryDy=0;entryPerimeter=0;" edge="1" parent="1" target="3y04S-a0-anMxjT8K6NH-54">
          <mxGeometry width="50" height="50" relative="1" as="geometry">
            <mxPoint x="445" y="130" as="sourcePoint" />
            <mxPoint x="270" y="190" as="targetPoint" />
          </mxGeometry>
        </mxCell>
        <mxCell id="3y04S-a0-anMxjT8K6NH-66" value="" style="endArrow=classic;html=1;rounded=0;entryX=0.524;entryY=-0.011;entryDx=0;entryDy=0;entryPerimeter=0;" edge="1" parent="1" target="3y04S-a0-anMxjT8K6NH-59">
          <mxGeometry width="50" height="50" relative="1" as="geometry">
            <mxPoint x="450" y="130" as="sourcePoint" />
            <mxPoint x="459" y="169" as="targetPoint" />
          </mxGeometry>
        </mxCell>
        <mxCell id="3y04S-a0-anMxjT8K6NH-67" value="&lt;font&gt;&lt;b&gt;БЪЛГАРСКИ СТРОИТЕЛНИ МАРКЕТИ 2006 ООД&lt;/b&gt;&lt;br&gt;&lt;font style=&quot;font-size: 10px;&quot;&gt;ЕИК&amp;nbsp;175082927&lt;/font&gt;&lt;/font&gt;" style="swimlane;fontStyle=0;childLayout=stackLayout;horizontal=1;startSize=30;horizontalStack=0;resizeParent=1;resizeParentMax=0;resizeLast=0;collapsible=1;marginBottom=0;whiteSpace=wrap;html=1;fillColor=#ffcc99;strokeColor=#36393d;" vertex="1" parent="1">
          <mxGeometry x="60" y="340" width="370" height="130" as="geometry" />
        </mxCell>
        <mxCell id="3y04S-a0-anMxjT8K6NH-68" value="&lt;font style=&quot;font-size: 10px;&quot;&gt;&lt;b&gt;Адрес&lt;/b&gt;:&amp;nbsp;гр. София, бул. БЪЛГАРИЯ № 98&lt;/font&gt;" style="text;strokeColor=none;fillColor=none;align=left;verticalAlign=middle;spacingLeft=4;spacingRight=4;overflow=hidden;points=[[0,0.5],[1,0.5]];portConstraint=eastwest;rotatable=0;whiteSpace=wrap;html=1;" vertex="1" parent="3y04S-a0-anMxjT8K6NH-67">
          <mxGeometry y="30" width="370" height="20" as="geometry" />
        </mxCell>
        <mxCell id="3y04S-a0-anMxjT8K6NH-69" value="&lt;font style=&quot;font-size: 10px;&quot;&gt;&lt;b&gt;Капитал&lt;/b&gt;:&amp;nbsp;108 000 (много съдружници)&lt;/font&gt;" style="text;strokeColor=none;fillColor=none;align=left;verticalAlign=middle;spacingLeft=4;spacingRight=4;overflow=hidden;points=[[0,0.5],[1,0.5]];portConstraint=eastwest;rotatable=0;whiteSpace=wrap;html=1;" vertex="1" parent="3y04S-a0-anMxjT8K6NH-67">
          <mxGeometry y="50" width="370" height="20" as="geometry" />
        </mxCell>
        <mxCell id="3y04S-a0-anMxjT8K6NH-70" value="&lt;font style=&quot;font-size: 10px;&quot;&gt;&lt;b&gt;Представляващи&lt;/b&gt;:&amp;nbsp;Румяна Любенова Баланова - Жекова, Стефан Владимиров Георгиев, Димитър Стефанов Вълев&lt;/font&gt;" style="text;strokeColor=none;fillColor=none;align=left;verticalAlign=middle;spacingLeft=4;spacingRight=4;overflow=hidden;points=[[0,0.5],[1,0.5]];portConstraint=eastwest;rotatable=0;whiteSpace=wrap;html=1;" vertex="1" parent="3y04S-a0-anMxjT8K6NH-67">
          <mxGeometry y="70" width="370" height="30" as="geometry" />
        </mxCell>
        <mxCell id="3y04S-a0-anMxjT8K6NH-71" value="&lt;font style=&quot;font-size: 10px;&quot;&gt;&lt;b&gt;Основна дейност:&amp;nbsp;&lt;/b&gt;&lt;/font&gt;&lt;span style=&quot;font-size: 10px;&quot;&gt;строителство и всички свързани със строителството и съпътстващи го дейности,търговия със строителни материали&lt;/span&gt;" style="text;strokeColor=none;fillColor=none;align=left;verticalAlign=middle;spacingLeft=4;spacingRight=4;overflow=hidden;points=[[0,0.5],[1,0.5]];portConstraint=eastwest;rotatable=0;whiteSpace=wrap;html=1;" vertex="1" parent="3y04S-a0-anMxjT8K6NH-67">
          <mxGeometry y="100" width="370" height="30" as="geometry" />
        </mxCell>
        <mxCell id="3y04S-a0-anMxjT8K6NH-72" value="&lt;font&gt;&lt;font style=&quot;&quot;&gt;&lt;b style=&quot;&quot;&gt;Крез България ЕООД &lt;/b&gt;&lt;/font&gt;&lt;br&gt;&lt;font style=&quot;font-size: 10px;&quot;&gt;ЕИК&amp;nbsp;204174413&lt;/font&gt;&lt;/font&gt;" style="swimlane;fontStyle=0;childLayout=stackLayout;horizontal=1;startSize=30;horizontalStack=0;resizeParent=1;resizeParentMax=0;resizeLast=0;collapsible=1;marginBottom=0;whiteSpace=wrap;html=1;fillColor=#ffcc99;strokeColor=#36393d;" vertex="1" parent="1">
          <mxGeometry x="480" y="340" width="260" height="130" as="geometry" />
        </mxCell>
        <mxCell id="3y04S-a0-anMxjT8K6NH-73" value="&lt;font style=&quot;font-size: 10px;&quot;&gt;&lt;b&gt;Адрес&lt;/b&gt;:&amp;nbsp;&lt;span style=&quot;background-color: transparent;&quot;&gt;гр. Пазарджик,&amp;nbsp;&lt;/span&gt;&lt;span style=&quot;background-color: transparent; color: light-dark(rgb(0, 0, 0), rgb(255, 255, 255));&quot;&gt;ул.&quot;Стоян Ангелов&quot; - Строймаркет КРЕЗ&lt;/span&gt;&lt;/font&gt;" style="text;strokeColor=none;fillColor=none;align=left;verticalAlign=middle;spacingLeft=4;spacingRight=4;overflow=hidden;points=[[0,0.5],[1,0.5]];portConstraint=eastwest;rotatable=0;whiteSpace=wrap;html=1;" vertex="1" parent="3y04S-a0-anMxjT8K6NH-72">
          <mxGeometry y="30" width="260" height="30" as="geometry" />
        </mxCell>
        <mxCell id="3y04S-a0-anMxjT8K6NH-74" value="&lt;font style=&quot;font-size: 10px;&quot;&gt;&lt;b&gt;Капитал&lt;/b&gt;:&amp;nbsp;155 000&lt;/font&gt;" style="text;strokeColor=none;fillColor=none;align=left;verticalAlign=middle;spacingLeft=4;spacingRight=4;overflow=hidden;points=[[0,0.5],[1,0.5]];portConstraint=eastwest;rotatable=0;whiteSpace=wrap;html=1;" vertex="1" parent="3y04S-a0-anMxjT8K6NH-72">
          <mxGeometry y="60" width="260" height="20" as="geometry" />
        </mxCell>
        <mxCell id="3y04S-a0-anMxjT8K6NH-75" value="&lt;font style=&quot;font-size: 10px;&quot;&gt;&lt;b&gt;Представляващи&lt;/b&gt;:&amp;nbsp;Костадин Тодоров Тошев&lt;/font&gt;" style="text;strokeColor=none;fillColor=none;align=left;verticalAlign=middle;spacingLeft=4;spacingRight=4;overflow=hidden;points=[[0,0.5],[1,0.5]];portConstraint=eastwest;rotatable=0;whiteSpace=wrap;html=1;" vertex="1" parent="3y04S-a0-anMxjT8K6NH-72">
          <mxGeometry y="80" width="260" height="20" as="geometry" />
        </mxCell>
        <mxCell id="3y04S-a0-anMxjT8K6NH-76" value="&lt;font style=&quot;font-size: 10px;&quot;&gt;&lt;b&gt;Основна дейност:&lt;/b&gt;&lt;/font&gt;" style="text;strokeColor=none;fillColor=none;align=left;verticalAlign=middle;spacingLeft=4;spacingRight=4;overflow=hidden;points=[[0,0.5],[1,0.5]];portConstraint=eastwest;rotatable=0;whiteSpace=wrap;html=1;" vertex="1" parent="3y04S-a0-anMxjT8K6NH-72">
          <mxGeometry y="100" width="260" height="30" as="geometry" />
        </mxCell>
      </root>
    </mxGraphModel>
  </diagram>
</mxfile>
